<svg width="968" height="497" fill="none" xmlns="http://www.w3.org/2000/svg"><g opacity=".25" fill-rule="evenodd" clip-rule="evenodd" fill="#fff"><g clip-path="url(#clip0)"><path d="M194.054 3v-142h181.655v-78H632v4H379.698v78H198.043V3h-3.989zM230.114 140h103.711V29h191.472v258H632v4H521.308V33H337.814v111h-107.7v-4zM130.979 298.75h126.14V423h90.667V277h117.613v178H632v4H461.41V281H351.775v146H253.13V302.75H130.979v-4zM77.549 335v56h111.519v77h-3.989v-73H73.559v-60h3.99zM85.716 33v56h111.519v77h-3.989V93H81.726V33h3.99z"/><path d="M632 33h-35.022V-88.398H434.545V-43.4H241.981V72.501h-3.989V-47.4h192.564v-44.998h170.411V29H632v4z"/><path d="M523.302 190.25h-62.44V31h3.989v155.25h58.451v4zM12.04 542H8.053V364.079h3.989V542z"/><path d="M10.046 436.5h86.57V542h-3.99V440.5h-82.58v-4zM632 384.078H463.405v-4H632v4zM335.82 88.889h69.726V279h-3.989V92.889H335.82v-4zM349.781 337h-57.939v-96.031l-92.153-1.452.059-4 96.083 1.515V333h53.95v4zM301.814 498.542h-3.989V425h3.989v73.542zM279.377-45.4v97.65h56.443v4h-60.432V-45.4h3.989zM160.338 10H10.196v60.75h-3.99V6h154.132v4zM632 97.986H523.302v-4H632v4zM391.664 498.542V351h71.192v4h-67.203v143.542h-3.989zM632 327h-72.798v53.041h-3.988V323H632v4zM632 133.691h-52.354V289h-3.989V129.691H632v4zM349.781 199.051h-69.866v-4h69.866v4z"/><path d="M242.111 73H-19.163v-4h261.274v4zM133.413 250H15.74v77.6h-3.989V246h121.662v4zM130.571 393v73h111.41v76h-3.989v-72h-111.41v-77h3.989zM598.973 423h-79.474v-4h79.474v4zM579.646 521.301h-3.989V486h3.989v35.301zM616.044 236.656h-3.989v-57.207h3.989v57.207zM488.396 234h-47.069v-4h47.069v4z"/><path d="M488.396 234h-47.069v-4h47.069v4zM16.737 284H-37.88v-4h54.617v4zM54.322 515h-3.988v-42.727h3.988V515zM223.134 354.52h-58.697v-4h58.697v4zM340.876 278.801c0 4.86 3.929 8.801 8.775 8.801 4.847 0 8.776-3.941 8.776-8.801 0-4.861-3.929-8.801-8.776-8.801-4.846 0-8.775 3.94-8.775 8.801zM285.061 335c0 4.86 3.929 8.801 8.775 8.801 4.847 0 8.776-3.941 8.776-8.801s-3.929-8.801-8.776-8.801c-4.846 0-8.775 3.941-8.775 8.801zM340.876 425c0 4.86 3.929 8.801 8.775 8.801 4.847 0 8.776-3.941 8.776-8.801s-3.929-8.801-8.776-8.801c-4.846 0-8.775 3.941-8.775 8.801zM454.62 279c0 4.86 3.929 8.801 8.785 8.801 4.847 0 8.776-3.941 8.776-8.801s-3.929-8.801-8.776-8.801c-4.856 0-8.785 3.941-8.785 8.801zM386 353c0 4.86 3.929 8.801 8.776 8.801 4.846 0 8.776-3.941 8.776-8.801s-3.93-8.801-8.776-8.801c-4.847 0-8.776 3.941-8.776 8.801zM454.62 457c0 4.86 3.929 8.801 8.785 8.801 4.847 0 8.776-3.941 8.776-8.801s-3.929-8.801-8.776-8.801c-4.856 0-8.785 3.941-8.785 8.801zM501.948 500.602c0 4.86 3.929 8.8 8.775 8.8 4.847 0 8.776-3.94 8.776-8.8 0-4.861-3.929-8.801-8.776-8.801-4.846 0-8.775 3.94-8.775 8.801zM548.431 326.199c0 4.861 3.929 8.801 8.777 8.801 4.846 0 8.776-3.94 8.776-8.801 0-4.86-3.93-8.801-8.776-8.801-4.848 0-8.777 3.941-8.777 8.801zM590.196 421c0 4.86 3.93 8.801 8.777 8.801 4.847 0 8.776-3.941 8.776-8.801s-3.929-8.801-8.776-8.801c-4.847 0-8.777 3.941-8.777 8.801zM510.723 421c0 4.86 3.93 8.801 8.776 8.801 4.848 0 8.777-3.941 8.777-8.801s-3.929-8.801-8.777-8.801c-4.846 0-8.776 3.941-8.776 8.801zM568.874 483c0 4.86 3.929 8.801 8.777 8.801 4.846 0 8.776-3.941 8.776-8.801s-3.93-8.801-8.776-8.801c-4.848 0-8.777 3.941-8.777 8.801zM514.526 289c0 4.86 3.929 8.801 8.776 8.801 4.847 0 8.777-3.941 8.777-8.801s-3.93-8.801-8.777-8.801c-4.847 0-8.776 3.941-8.776 8.801zM568.874 131.691c0 4.86 3.929 8.801 8.777 8.801 4.846 0 8.776-3.941 8.776-8.801 0-4.861-3.93-8.801-8.776-8.801-4.848 0-8.777 3.94-8.777 8.801zM605.273 179.449c0 4.861 3.929 8.801 8.777 8.801 4.846 0 8.776-3.94 8.776-8.801 0-4.86-3.93-8.801-8.776-8.801-4.848 0-8.777 3.941-8.777 8.801zM605.273 238c0 4.861 3.929 8.801 8.777 8.801 4.846 0 8.776-3.94 8.776-8.801 0-4.861-3.93-8.801-8.776-8.801-4.848 0-8.777 3.94-8.777 8.801zM454.081 188.25c0 4.861 3.929 8.801 8.775 8.801 4.847 0 8.776-3.94 8.776-8.801 0-4.861-3.929-8.801-8.776-8.801-4.846 0-8.775 3.94-8.775 8.801zM514.526 31c0 4.861 3.929 8.801 8.776 8.801 4.847 0 8.777-3.94 8.777-8.801 0-4.861-3.93-8.801-8.777-8.801-4.847 0-8.776 3.94-8.776 8.801zM590.196 29c0 4.861 3.93 8.801 8.777 8.801 4.847 0 8.776-3.94 8.776-8.801 0-4.861-3.929-8.801-8.776-8.801-4.847 0-8.777 3.94-8.777 8.801zM85.845 438.5c0 4.861 3.93 8.801 8.776 8.801s8.775-3.94 8.775-8.801c0-4.86-3.929-8.801-8.775-8.801-4.847 0-8.776 3.941-8.776 8.801z"/><path d="M43.553 468c0 4.86 3.929 8.801 8.775 8.801 4.847 0 8.776-3.941 8.776-8.801s-3.93-8.801-8.776-8.801-8.775 3.941-8.775 8.801zM178.298 393c0 4.86 3.929 8.801 8.776 8.801 4.846 0 8.775-3.941 8.775-8.801s-3.929-8.801-8.775-8.801c-4.847 0-8.776 3.941-8.776 8.801zM214.358 352.52c0 4.861 3.929 8.801 8.775 8.801 4.847 0 8.776-3.94 8.776-8.801 0-4.86-3.929-8.8-8.776-8.8-4.846 0-8.775 3.94-8.775 8.8zM155.661 352.52c0 4.861 3.929 8.801 8.775 8.801 4.847 0 8.776-3.94 8.776-8.801 0-4.86-3.929-8.8-8.776-8.8-4.846 0-8.775 3.94-8.775 8.8zM119.801 468c0 4.86 3.929 8.801 8.775 8.801 4.847 0 8.776-3.941 8.776-8.801s-3.929-8.801-8.776-8.801c-4.846 0-8.775 3.941-8.775 8.801zM394.776 210.345c0 4.861 3.929 8.801 8.776 8.801 4.846 0 8.775-3.94 8.775-8.801 0-4.86-3.929-8.8-8.775-8.8-4.847 0-8.776 3.94-8.776 8.8zM479.62 232c0 4.861 3.929 8.801 8.775 8.801 4.847 0 8.776-3.94 8.776-8.801 0-4.861-3.929-8.801-8.776-8.801-4.846 0-8.775 3.94-8.775 8.801zM432.551 232c0 4.861 3.929 8.801 8.775 8.801 4.857 0 8.786-3.94 8.786-8.801 0-4.861-3.929-8.801-8.786-8.801-4.846 0-8.775 3.94-8.775 8.801zM180.482 205.801h-47.07v-4h47.07v4z"/><path d="M171.706 203.801c0 4.861 3.929 8.801 8.776 8.801 4.846 0 8.775-3.94 8.775-8.801 0-4.861-3.929-8.801-8.775-8.801-4.847 0-8.776 3.94-8.776 8.801zM124.638 203.801c0 4.861 3.929 8.801 8.775 8.801 4.857 0 8.786-3.94 8.786-8.801 0-4.861-3.929-8.801-8.786-8.801-4.846 0-8.775 3.94-8.775 8.801zM327.044 31c0 4.861 3.929 8.801 8.776 8.801 4.846 0 8.775-3.94 8.775-8.801 0-4.861-3.929-8.801-8.775-8.801-4.847 0-8.776 3.94-8.776 8.801zM394.776 90.889c0 4.861 3.929 8.801 8.776 8.801 4.846 0 8.775-3.94 8.775-8.801 0-4.86-3.929-8.801-8.775-8.801-4.847 0-8.776 3.941-8.776 8.801zM327.044 143.137c0 4.861 3.929 8.801 8.776 8.801 4.846 0 8.775-3.94 8.775-8.801 0-4.86-3.929-8.801-8.775-8.801-4.847 0-8.776 3.941-8.776 8.801zM344.595 197.051c0 4.86 3.929 8.801 8.786 8.801 4.846 0 8.775-3.941 8.775-8.801 0-4.861-3.929-8.801-8.775-8.801-4.857 0-8.786 3.94-8.786 8.801zM271.14 197.051c0 4.86 3.929 8.801 8.775 8.801 4.847 0 8.776-3.941 8.776-8.801 0-4.861-3.929-8.801-8.776-8.801-4.846 0-8.775 3.94-8.775 8.801zM220.571 141.801c0 4.86 3.929 8.801 8.775 8.801 4.847 0 8.776-3.941 8.776-8.801 0-4.861-3.929-8.801-8.776-8.801-4.846 0-8.775 3.94-8.775 8.801zM246.349 425c0 4.86 3.929 8.801 8.776 8.801 4.846 0 8.775-3.941 8.775-8.801s-3.929-8.801-8.775-8.801c-4.847 0-8.776 3.941-8.776 8.801zM291.044 500.602c0 4.86 3.929 8.8 8.776 8.8 4.846 0 8.775-3.94 8.775-8.8 0-4.861-3.929-8.801-8.775-8.801-4.847 0-8.776 3.94-8.776 8.801zM246.349 301.657c0 4.86 3.929 8.801 8.776 8.801 4.846 0 8.775-3.941 8.775-8.801 0-4.861-3.929-8.801-8.775-8.801-4.847 0-8.776 3.94-8.776 8.801zM187.662 2.801c0 4.861 3.929 8.801 8.776 8.801 4.846 0 8.775-3.94 8.775-8.801 0-4.861-3.929-8.801-8.775-8.801-4.847 0-8.776 3.94-8.776 8.801zM1.18 367.801c0 4.861 3.93 8.801 8.776 8.801 4.847 0 8.776-3.94 8.776-8.801 0-4.861-3.929-8.801-8.776-8.801-4.846 0-8.775 3.94-8.775 8.801zM66.998 336.801c0 4.861 3.929 8.801 8.775 8.801 4.847 0 8.776-3.94 8.776-8.801 0-4.861-3.93-8.801-8.776-8.801s-8.775 3.94-8.775 8.801zM123.839 300.801c0 4.861 3.93 8.801 8.776 8.801 4.847 0 8.776-3.94 8.776-8.801 0-4.861-3.929-8.801-8.776-8.801-4.846 0-8.776 3.94-8.776 8.801zM190.653 237.801c0 4.861 3.929 8.801 8.776 8.801 4.847 0 8.776-3.94 8.776-8.801 0-4.861-3.929-8.801-8.776-8.801-4.847 0-8.776 3.94-8.776 8.801zM186.665 163.801c0 4.861 3.929 8.801 8.776 8.801 4.846 0 8.775-3.94 8.775-8.801 0-4.861-3.929-8.801-8.775-8.801-4.847 0-8.776 3.94-8.776 8.801zM74.975 33.801c0 4.861 3.93 8.801 8.776 8.801 4.847 0 8.776-3.94 8.776-8.801 0-4.861-3.93-8.801-8.776-8.801s-8.776 3.94-8.776 8.801zM150.765 7.801c0 4.861 3.929 8.801 8.775 8.801 4.847 0 8.776-3.94 8.776-8.801 0-4.861-3.929-8.801-8.776-8.801-4.846 0-8.775 3.94-8.775 8.801z"/><path d="M131.418 206H73.479v-96.031l-92.153-1.452.06-4 96.082 1.515V202h53.95v4z"/><path d="M39.674 140h-57.94v96.031l-92.153 1.452.06 4 96.083-1.515V144h53.95v-4zM66.698 204c0 4.86 3.93 8.801 8.776 8.801s8.775-3.941 8.775-8.801-3.929-8.801-8.775-8.801c-4.847 0-8.776 3.941-8.776 8.801zM122.842 247.801c0 4.86 3.929 8.801 8.776 8.801 4.847 0 8.776-3.941 8.776-8.801S136.465 239 131.618 239c-4.847 0-8.776 3.941-8.776 8.801z"/><path d="M27.108 141.801c0 4.861 3.93 8.801 8.776 8.801 4.847 0 8.776-3.94 8.776-8.801 0-4.861-3.93-8.801-8.776-8.801s-8.776 3.94-8.776 8.801zM5.17 323.801c0 4.86 3.929 8.801 8.775 8.801 4.847 0 8.776-3.941 8.776-8.801S18.79 315 13.945 315s-8.775 3.941-8.775 8.801zM5.17 281.801c0 4.86 3.929 8.801 8.775 8.801 4.847 0 8.776-3.941 8.776-8.801S18.79 273 13.945 273s-8.775 3.941-8.775 8.801z"/></g><g clip-path="url(#clip1)"><path d="M1071.16 3v-142H889.004v-78H632v4h253.004v78h182.156V3h4zM1035 140H931.004V29H739v258H632v4h111V33h184.004v111H1035v-4zM1134.41 298.75h-126.49V423h-90.916V277h-117.94v178H632v4h171.064V281h109.94v146h98.916V302.75h122.49v-4z"/><path d="M632 33h35.119V-88.398h162.885V-43.4H1023.1V72.501h4V-47.4H834.004v-44.998H663.119V29H632v4z"/><path d="M741 190.25h62.614V31h-4v155.25H741v4zM632 384.078h169.064v-4H632v4zM929.004 88.889h-69.92V279h4V92.889h65.92v-4zM915.004 337h58.1v-96.031l92.406-1.452-.06-4-96.346 1.515V333h-54.1v4zM963.104 498.542h4V425h-4v73.542zM985.604-45.4v97.65h-56.6v4h60.6V-45.4h-4zM632 97.986h109v-4H632v4zM873.004 498.542V351h-71.39v4h67.39v143.542h4zM632 327h73v53.041h4V323h-77v4zM632 133.691h52.5V289h4V129.691H632v4zM915.004 199.051h70.06v-4h-70.06v4zM665.119 423h79.695v-4h-79.695v4zM684.5 521.301h4V486h-4v35.301z"/><path d="M648 236.656h4v-57.207h-4v57.207zM776.004 234h47.2v-4h-47.2v4z"/><path d="M776.004 234h47.2v-4h-47.2v4zM923.934 278.801a8.801 8.801 0 11-8.8-8.801 8.8 8.8 0 018.8 8.801zM979.904 335a8.801 8.801 0 11-17.602 0 8.801 8.801 0 0117.602 0zM923.934 425a8.801 8.801 0 11-17.602 0 8.801 8.801 0 0117.602 0zM809.874 279c0 4.86-3.94 8.801-8.81 8.801a8.801 8.801 0 010-17.602c4.87 0 8.81 3.941 8.81 8.801zM878.684 353a8.801 8.801 0 11-17.602 0 8.801 8.801 0 0117.602 0zM809.874 457c0 4.86-3.94 8.801-8.81 8.801a8.801 8.801 0 010-17.602c4.87 0 8.81 3.941 8.81 8.801zM762.414 500.602a8.8 8.8 0 01-17.6 0 8.8 8.8 0 1117.6 0zM715.801 326.199a8.801 8.801 0 11-17.602 0 8.801 8.801 0 0117.602 0zM673.92 421a8.802 8.802 0 11-17.604-.002 8.802 8.802 0 0117.604.002zM753.614 421a8.801 8.801 0 11-17.602 0 8.801 8.801 0 0117.602 0zM695.301 483a8.801 8.801 0 11-17.602 0 8.801 8.801 0 0117.602 0zM749.801 289a8.801 8.801 0 11-17.602 0 8.801 8.801 0 0117.602 0zM695.301 131.691a8.801 8.801 0 11-17.602 0 8.801 8.801 0 0117.602 0zM658.801 179.449a8.801 8.801 0 11-17.602 0 8.801 8.801 0 0117.602 0zM658.801 238a8.801 8.801 0 11-17.602 0 8.801 8.801 0 0117.602 0zM810.414 188.25a8.8 8.8 0 11-17.6 0 8.8 8.8 0 1117.6 0zM749.801 31a8.801 8.801 0 11-17.602 0 8.801 8.801 0 0117.602 0zM673.92 29a8.801 8.801 0 11-17.602 0 8.801 8.801 0 0117.602 0zM869.884 210.345a8.8 8.8 0 11-8.8-8.8 8.8 8.8 0 018.8 8.8z"/><path d="M784.804 232a8.8 8.8 0 11-17.6 0 8.8 8.8 0 1117.6 0zM832.004 232a8.8 8.8 0 01-8.8 8.801c-4.87 0-8.81-3.94-8.81-8.801 0-4.861 3.94-8.801 8.81-8.801a8.8 8.8 0 018.8 8.801zM937.804 31a8.8 8.8 0 11-17.6 0 8.8 8.8 0 1117.6 0zM869.884 90.889a8.8 8.8 0 11-17.6 0 8.801 8.801 0 1117.6 0zM937.804 143.137a8.8 8.8 0 11-17.6 0 8.801 8.801 0 1117.6 0zM920.204 197.051c0 4.86-3.94 8.801-8.81 8.801-4.86 0-8.8-3.941-8.8-8.801a8.8 8.8 0 018.8-8.801c4.87 0 8.81 3.94 8.81 8.801zM973.904 500.602a8.8 8.8 0 01-17.6 0 8.8 8.8 0 1117.6 0z"/></g></g><defs><clipPath id="clip0"><path transform="matrix(-1 0 0 1 632 0)" fill="#fff" d="M0 0h719v542H0z"/></clipPath><clipPath id="clip1"><path fill="#fff" d="M632 0h721v542H632z"/></clipPath></defs></svg>
